<?xml version="1.0" encoding="UTF-8" standalone="no"?>
<!-- Created with Inkscape (http://www.inkscape.org/) -->

<svg width="123.46mm" height="82.130013mm" viewBox="0 0 123.46 82.130013" version="1.1" id="svg5" xml:space="preserve"
  xmlns="http://www.w3.org/2000/svg" xmlns:svg="http://www.w3.org/2000/svg">
  <defs id="defs2">
    <style type="text/css" id="style306">
      <![CDATA[
      .fil1 {
        fill: #2B2A29
      }

      .fil2 {
        fill: #E31E24
      }

      .fil0 {
        fill: #E2302E
      }
      ]]>
    </style>
  </defs>
  <g id="layer1" transform="translate(-43.270001,-93.064031)">
    <g style="clip-rule:evenodd;fill-rule:evenodd;image-rendering:optimizeQuality;shape-rendering:geometricPrecision;text-rendering:geometricPrecision"
      id="g384" transform="matrix(0.01,0,0,0.01,6.84,58.784033)">
      <g id="Layer_x0020_1">
        <metadata id="CorelCorpID_0Corel-Layer" />
        <g id="_768690144">
          <path class="fil0"
            d="m 13269,6998 c -1115,138 -2208,369 -3258,741 -1283,454 -2477,1096 -3623,1789 -16,10 -110,1 -121,1 -98,0 -195,-2 -293,-3 -98,-2 -195,-3 -293,-6 -5,0 -110,-11 -121,-4 1134,-687 2314,-1318 3581,-1775 1060,-383 2171,-616 3299,-756 271,-34 559,46 829,13 z"
            id="path311" />
          <path class="fil1"
            d="m 10666,3965 c 0,1049 1,2098 -2,3147 0,47 120,124 120,131 3,-1049 2,-2098 2,-3147 0,-47 -120,-124 -120,-131 z"
            id="path313" />
          <path class="fil1"
            d="m 7625,4396 c -90,148 -179,295 -269,442 -4,6 23,28 23,28 90,-147 180,-294 270,-441 4,-7 -24,-29 -24,-29 z"
            id="path315" />
          <path class="fil1"
            d="m 7831,4421 c -121,198 -242,396 -364,594 -3,7 24,29 24,29 121,-199 242,-397 363,-595 4,-6 -23,-28 -23,-28 z"
            id="path317" />
          <path class="fil1"
            d="m 7764,4401 c -160,262 -320,524 -480,786 -4,6 23,29 23,28 160,-262 321,-524 481,-786 4,-6 -24,-28 -24,-28 z"
            id="path319" />
          <path class="fil1"
            d="m 6093,8812 c 798,-350 1614,-665 2434,-960 713,-256 1435,-492 2166,-691 673,-183 1362,-341 2060,-384 32,-2 111,-105 133,-126 20,-19 102,-127 131,-129 -682,41 -1355,196 -2014,371 -733,196 -1455,434 -2169,689 -835,298 -1664,618 -2476,974 -106,47 -160,210 -265,256 z"
            id="path321" />
          <path class="fil1"
            d="m 6965,4223 c 0,1446 0,2893 0,4339 0,-38 119,-76 119,-115 0,-1446 0,-2893 0,-4339 0,37 -119,76 -119,115 z"
            id="path323" />
          <path class="fil1"
            d="m 6379,4091 c 1831,32 3661,63 5492,95 391,7 783,14 1175,21 -8,0 -26,-57 -46,-57 -1831,-32 -3662,-64 -5492,-96 -392,-7 -784,-14 -1175,-21 8,1 25,57 46,58 z"
            id="path325" />
          <path class="fil1"
            d="m 6829,3653 c 0,229 0,458 0,686 0,19 48,50 48,53 0,-229 0,-458 0,-687 0,-18 -48,-49 -48,-52 z"
            id="path327" />
          <path class="fil1"
            d="m 6692,7883 c 278,-82 556,-164 834,-245 -1,0 -32,-61 -47,-57 -278,82 -556,164 -834,246 1,-1 32,61 47,56 z"
            id="path329" />
          <path class="fil1"
            d="m 10567,3428 c 0,1030 0,2059 0,3089 0,19 48,50 48,52 0,-1029 0,-2059 0,-3088 0,-19 -48,-50 -48,-53 z"
            id="path331" />
          <path class="fil1"
            d="m 6682,4165 c 1234,21 2468,43 3701,64 -3,0 -10,-22 -18,-22 -1234,-22 -2468,-44 -3701,-65 3,0 10,23 18,23 z"
            id="path333" />
          <path class="fil1"
            d="m 10000,5183 c 971,-51 1942,-102 2913,-153 -3,1 -11,-22 -20,-21 -971,51 -1942,102 -2913,153 3,-1 12,22 20,21 z"
            id="path335" />
          <path class="fil1"
            d="m 12505,3879 c 0,977 0,1953 0,2930 0,47 119,124 119,131 0,-977 0,-1953 0,-2930 0,-47 -119,-124 -119,-131 z"
            id="path337" />
          <path class="fil1"
            d="m 10558,5299 c 603,-32 1207,-63 1811,-95 -12,1 -44,-82 -75,-81 -604,32 -1208,64 -1812,95 12,0 45,83 76,81 z"
            id="path339" />
          <path class="fil1"
            d="m 12749,3832 c 0,196 0,392 0,588 0,28 72,75 72,79 0,-196 0,-392 0,-588 0,-29 -72,-75 -72,-79 z"
            id="path341" />
          <path class="fil1"
            d="m 7123,3526 c 0,1496 0,2991 0,4486 0,19 48,50 48,53 0,-1496 0,-2991 0,-4486 0,-19 -48,-50 -48,-53 z"
            id="path343" />
          <path class="fil1"
            d="m 12663,3477 c 0,392 0,785 0,1177 0,19 48,50 48,52 0,-392 0,-784 0,-1176 0,-19 -48,-50 -48,-53 z"
            id="path345" />
          <path class="fil1"
            d="m 5587,8767 c 825,-369 1672,-694 2521,-1000 1631,-589 3312,-1110 5032,-1357 197,-29 394,-51 592,-70 -2,0 -11,-23 -19,-22 -1735,162 -3436,669 -5077,1234 -1022,351 -2034,738 -3023,1173 -15,6 -30,13 -45,19 0,1 14,25 19,23 z"
            id="path347" />
          <path class="fil2"
            d="m 5787,11268 c 0,92 12,155 36,191 24,36 59,60 106,71 v 67 h -693 c -30,-63 -50,-130 -60,-199 -103,73 -213,132 -328,177 -115,44 -269,66 -462,66 -129,0 -250,-17 -364,-53 -113,-34 -205,-89 -274,-162 -70,-74 -105,-165 -105,-275 0,-105 31,-196 91,-272 60,-76 143,-136 249,-179 104,-43 228,-71 371,-85 l 579,-61 c 151,-14 226,-58 226,-132 0,-82 -41,-135 -121,-159 -81,-25 -182,-37 -303,-37 -141,0 -240,22 -293,66 -55,45 -89,100 -102,168 h -618 c 23,-162 87,-286 192,-371 105,-87 232,-144 381,-173 149,-29 321,-44 518,-44 145,0 290,13 436,40 145,26 271,75 378,148 106,72 160,172 160,298 z m -628,-490 c -71,38 -216,69 -438,93 -92,10 -169,24 -231,40 -62,16 -112,42 -149,75 -38,33 -56,79 -56,137 0,69 31,120 93,153 62,33 131,49 206,49 96,0 189,-14 278,-41 88,-27 159,-66 214,-116 55,-50 83,-108 83,-174 z m 1706,819 v -1327 h -729 v -354 h 2101 v 354 h -730 v 1327 z m 2267,0 v -1327 h -729 v -354 h 2101 v 354 h -730 v 1327 z m 3960,-1681 v 1681 h -615 v -237 h -10 c -72,91 -173,160 -299,208 -126,49 -274,73 -443,73 -164,0 -309,-22 -434,-66 -125,-45 -222,-113 -292,-206 -69,-92 -105,-208 -105,-347 V 9916 h 642 v 1043 c 0,206 140,310 418,310 130,0 246,-30 346,-89 100,-60 150,-158 150,-294 v -970 z m 1250,1681 h -642 V 9916 h 642 v 638 l 808,-638 h 802 l -876,651 913,1030 h -780 l -602,-721 -265,190 z"
            id="path349" />
          <path class="fil1"
            d="m 11483,9492 c -111,0 -212,-14 -305,-43 -93,-28 -167,-71 -222,-129 -56,-58 -84,-130 -84,-215 0,-64 17,-121 49,-169 33,-50 78,-90 135,-122 56,-32 121,-56 194,-71 72,-16 150,-24 233,-24 82,0 160,8 233,24 73,15 138,39 195,71 57,32 101,73 133,122 33,48 49,105 49,169 0,64 -16,121 -49,170 -32,49 -76,89 -133,121 -56,32 -121,56 -195,72 -74,16 -152,24 -233,24 z m -1,-610 c -108,0 -183,22 -224,66 -42,45 -63,97 -63,157 0,61 21,113 63,158 41,44 116,66 224,66 109,0 184,-22 225,-66 42,-44 63,-97 63,-158 0,-60 -21,-113 -63,-157 -41,-44 -116,-66 -225,-66 z m 1148,590 h -314 v -734 h 314 v 279 l 395,-279 h 393 l -429,285 447,449 h -382 l -294,-314 -130,83 z m 2008,0 h -314 v -289 h -446 v 289 h -314 v -734 h 314 v 290 h 446 v -290 h 314 z m 1265,-143 c 0,40 6,68 18,83 11,16 29,26 51,32 v 28 h -339 c -14,-27 -24,-56 -29,-86 -50,32 -104,58 -160,77 -56,19 -132,29 -226,29 -63,0 -122,-8 -178,-23 -55,-15 -100,-39 -134,-71 -34,-32 -51,-72 -51,-120 0,-46 15,-86 44,-119 30,-33 70,-59 122,-78 51,-19 112,-31 182,-37 l 282,-27 c 74,-6 111,-25 111,-58 0,-35 -20,-58 -59,-69 -40,-11 -89,-16 -148,-16 -69,0 -118,10 -144,29 -26,19 -43,44 -50,73 h -302 c 11,-71 43,-125 94,-162 51,-38 113,-63 186,-76 73,-12 157,-19 254,-19 71,0 142,6 213,18 71,11 133,32 185,64 52,32 78,75 78,131 z m -307,-214 c -35,17 -106,30 -214,40 -45,5 -83,11 -113,18 -31,7 -55,18 -73,33 -19,14 -28,34 -28,60 0,30 16,52 46,66 30,15 64,22 101,22 47,0 92,-6 136,-18 43,-12 77,-29 104,-51 27,-22 41,-47 41,-76 z"
            id="path351" />
        </g>
      </g>
    </g>
  </g>
</svg>